<svg width="1100" height="800">
    <g>
        <path d="M990.0176633256051,643.5896593024663L989.9673978431238,643.407343596482L989.9548314725253,643.2416018104414L990.1181942905096,641.965382558592L990.2564243673114,641.3521296245381L990.6208491150755,639.7609725824805L990.7716455624613,638.9653863229687L990.9978402335109,638.4349926170325L991.1612030514807,637.4570732104403L991.2617340164579,637.2250233934974L991.2868667576258,637.0261232010089L991.3371322401217,636.7609224426415L991.6638578760612,634.2083358307136L991.8272206941037,632.136392061926L991.8146543234325,629.9815334203959L991.8523534352717,629.5339811092999L991.9151852883369,629.1195793653533L992.0534153651533,628.5559907471397L992.2670436656044,627.9923995395075L992.5435038190626,627.4951110296024L992.8450967138342,627.097278770183L993.1592559791898,626.7491744848885L993.3980170209106,626.5336808608627L993.7121762862662,626.285033901142L994.0389019221911,626.0861159705673L994.3907602993859,625.8871977173039L995.107043424432,625.5556665785261L996.9794326458941,624.5279143540465L997.8088131065306,624.1632260111292L998.5879280846275,623.8316902129809L999.3544766920677,623.5167303747439L1000.2969544881489,623.1520390254082L1000.435184564878,623.0691544766596L1000.5734146416944,622.9696929442434L1000.9127066482906,622.555269024182L1001.2268659136462,622.0413814188068L1001.4153614728566,621.6766856832255L1001.704387996986,621.2788345531881L1001.8300517031166,621.1296400466381L1001.9682817798457,620.9970225552752L1002.295007415858,620.7815188259701L1002.6845649048773,620.6157464687276L1002.9987241702474,620.5328602062364L1003.5516444773093,620.3836647923818L1004.3684585672454,620.2510464944789L1004.7705824268342,620.1350053661372L1005.3486354751512,620.1018507379922L1006.3539451242978,620.002386799395L1007.5603167032386,619.8034586804424L1007.9121750804334,619.7205718689729L1008.3268653106934,619.7039944998905L1008.5153608699038,619.7205718689729L1010.2746527559066,619.687417128669L1011.7574844884803,619.7537266002182L1014.6477497297892,619.902922780253L1017.9778379425261,620.018964128154L1018.5558909908286,620.0521187786944L1020.8932359250757,620.1515826769682L1023.0169525589299,620.3007783729772L1023.3562445655261,620.3670875130556L1023.6955365720496,620.4333966172344L1024.0725276904705,620.5825919704876L1025.0150054865808,620.9970225552752L1025.492527569906,621.2125259059612L1025.6684567585326,621.2788345531881L1026.5732354427892,621.7098398857561L1031.7128810240247,623.9643046397323L1032.4040314078156,624.3455703181389L1032.5171287433477,624.461607463345L1032.7056243026018,624.5610677860604L1032.868987120557,624.4118772716902L1033.6104029868438,624.7102581190993L1033.6858012105076,624.5776444987059L1033.8365976578789,624.6439513267687L1033.1077481622633,626.3181868582469L1032.730757043828,627.2961950611425L1030.94633241657,631.5065142201565L1030.5190758156532,632.368451504175L1030.0918192148092,633.147504992703L1029.739960837629,633.8934026330608L1029.2498723836325,634.8216244743962L1027.7167751686648,637.8880217061887L1027.5911114625196,638.1697949041627L1027.5282796094543,638.4018429342468L1027.4780141270312,638.6504653365264L1026.53553633095,640.4405317604469L1024.839076298027,643.7885488546526L1024.7385453331226,644.0205862580988L1023.9594303550111,645.2304884659534L1023.3562445655261,646.8547219859902L1020.4911120653851,652.2576297937339L1020.2523510237661,652.7382450392251L1020.1015545763803,653.019984135557L1020.0764218351396,653.019984135557L1020.038722723315,653.019984135557L1019.8753599053307,652.9868383931025L1019.8376607935061,652.9205468812943L1019.6617316048796,652.8211095464649L1019.5360678987345,652.8045366494189L1019.3978378220054,652.7879637502847L1019.2344750039629,652.771390848924L1018.844917514929,652.705099220686L1018.430227284698,652.6388075566574L1018.3296963197936,652.6388075566574L1018.254298096057,652.6885263080621L1018.065802536832,652.721672131047L1017.8647406070231,652.8211095465231L1017.6385459360026,653.0034112654175L1017.4626167473616,653.2354312432872L1017.2992539293919,653.5503147971467L1017.1861565938307,653.9149157975044L1016.7840327341546,654.793268304209L1016.5829708043602,655.075002682177L1016.5075725806964,655.3070187430494L1016.33164339207,655.6881870335201L1016.1054487210204,656.4173752466158L1015.9546522736491,656.6991058956337L1016.0174841267144,657.2459929563993L1016.0300504972838,657.4117158269073L1016.0551832385245,658.0248885017209L1016.0300504972838,658.240326822408L1015.9295195323939,658.6049138878152L1015.7158912319283,659.1352204130962L1015.225802778019,660.1129670611917L1015.0750063306186,660.3615454754181L1014.7482806946937,661.090705918934L1014.4466877999075,661.5712865699024L1013.8435020104371,662.8307303811598L1013.2528825915506,663.9410188107358L1013.114652514807,664.2227321876853L1012.9261569555965,664.5707301721559L1012.7627941376268,664.8027282803232L1012.6748295433063,665.0347259498158L1012.3104047954548,665.6810028596301L1011.7826172296482,666.7912655026812L1011.3679269993881,667.5203877444146L1011.1794314401777,667.9180889596391L1010.9281040278875,668.3323596883711L1010.4505819445476,669.3266037319408L1010.2620863853372,669.5917341165405L1010.1238563086226,669.9728580411029L1009.6212014840276,670.9173774484007L1009.4829714072257,671.2156452248455L1009.2567767361907,671.8453192611778L1008.8923519883392,672.50813054631L1008.1760688633804,674.0160128852876L1008.0755378984031,674.1817131115386L1007.9498741922725,674.4136930523819L1007.4974848501734,675.2090495209122L1007.3969538852689,675.3747481364626L1006.2408477887366,677.5288097822631L1005.8010248172359,678.2081598445147L1005.6879274816747,678.4235627376693L1005.599962887427,678.539548754321L1005.1852726571669,679.0863384993936L1004.2804939729249,680.5278634243878L1004.0919984137145,680.7432622466804L1003.4259807711642,681.6545607737935L1003.2123524706985,681.9362334952384L1002.6719985342788,682.6984035006244L1001.7546534793801,684.0073365973367L1001.3902287316159,684.5209647588708L1001.2394322842156,684.7860623238448L1000.9378393894585,685.2002761229814L1000.7242110890802,685.5979200551883L1000.4603173061187,686.0452679392401L1000.2969544881489,686.3269305854046L999.9450961109542,686.7411391850619L999.6560695868538,686.989663673914L999.3293439508416,687.1884829027986L998.9900519442162,687.3873018096056L998.1481051131268,687.7020977534921L997.7962467358593,687.7683704808878L997.4569547293358,687.7849386571761L997.1679282051482,687.7518023023731L996.5270433038386,687.4867111422354L996.2631495209644,687.3873018096056L996.0872203323379,687.2878923964308L995.8107601787924,687.2216194096691L994.3656275581452,686.4760458423261L993.2472205734957,685.8795837278449L990.8596101567819,684.7363565740161L990.1307606611663,684.2558666212572L989.8291677663801,684.0404739629666L989.3642120536533,683.593118772551L989.200849235669,683.4274312512644L989.0626191589399,683.2451747195591L988.5850970755273,682.4167325282397L987.9316458036483,681.0249370593228L986.8760706720059,678.9537836333839L985.9964247290045,677.1974181435507L985.5189026456646,676.1866681190004L985.1293451566307,675.5901560022394L984.7900531500491,675.0267807853816L984.3376638078917,673.999442850436L983.9858054306969,673.3034993634501L983.5962479416921,672.4252793314299L983.1689913407608,671.6464751776584L982.9804957815504,671.0333705586745L982.6914692574355,669.7408697062201L982.5909382925311,669.1111848727232L982.5783719218452,668.9951899457083L982.5029736982251,668.7797705047706L982.3898763626494,668.3655012863092L982.3144781390001,667.8849472408838L982.2767790271755,667.0564013644471L982.2767790271755,666.3604185053773L982.3144781390001,665.7638586276153L982.2893453977595,665.3495792285248L982.3396108802408,664.7198718634827L982.364743621496,664.3718743017744L982.4527082157001,663.6924476469794L982.5783719218452,662.3335830523865L982.6035046631296,661.9358637393161L982.79200022234,659.9638197708337L982.8925311872445,658.5054811592199L982.9427966697258,657.942027508514L983.0056285227911,657.4117158269073L983.1187258583668,656.9642635628115L983.1187258583668,656.7819677281586L983.0935931171261,656.5830992362025L983.1061594876955,656.3013683207173L983.1815577114321,655.9864918262028L983.3574868999858,655.3235913019962L983.6842125359981,654.5446786100292L984.0863363956014,653.8154792685309L985.3555398276949,652.4399323498874L986.134654805719,651.6941474535342L987.3410263847618,650.6003214059456L987.9819112860569,650.1196977864383L988.371468775149,649.7550855089576Z" class="EWR" id="z1" style="fill: rgb(251, 106, 74); stroke: black; stroke-width: 1;"></path>
    </g>
</svg>